# xmcd
#
# Track frame offsets:
#	150
#	17635
#	34767
#	50227
#	67262
#	82112
#	98515
#	114087
#	128552
#	145892
#	158597
#	174612
#	188497
#	204292
#
# Disc length: 2895 seconds
#
# Revision: 3
# Processed by: cddbd v1.5.2PL0 Copyright (c) Steve Scherf et al.
# Submitted via: audiograbber 1.83.01
#
DISCID=b40b4d0e
DTITLE=Various Artist - Hot Hits Country Vol. 52
DYEAR=1996
DGENRE=Country
TTITLE0=Alan Jackson - I'll Try
TTITLE1=Shania Twain - You Win My Love
TTITLE2=Patty Loveless - You Can Feel Bad
TTITLE3=Lee Roy Parnell - Heart's Desire
TTITLE4=Blackhawk - Almost A Memory Now
TTITLE5=Faith Hill - Someone Else's Dream
TTITLE6=James Bonamy - She's Got A Mind Of Her Own
TTITLE7=Lari White - Ready, Willing And Able
TTITLE8=PamTillis - The River And The Highway
TTITLE9=Dwight Yoakam - Gone (That'll Be Me)
TTITLE10=Mindy McCready - Ten Thousand Angels
TTITLE11=Stephanie Bentley - Who's That Girl
TTITLE12=Keith Stegall - 1969
TTITLE13=Mandy Barnett - Now That's All Right With Me
EXTD=
EXTT0=
EXTT1=
EXTT2=
EXTT3=
EXTT4=
EXTT5=
EXTT6=
EXTT7=
EXTT8=
EXTT9=
EXTT10=
EXTT11=
EXTT12=
EXTT13=
PLAYORDER=
